<?xml version="1.0" standalone="no"?>
<!DOCTYPE svg PUBLIC "-//W3C//DTD SVG 20010904//EN"
 "http://www.w3.org/TR/2001/REC-SVG-20010904/DTD/svg10.dtd">
<svg version="1.0" xmlns="http://www.w3.org/2000/svg"
 width="227.000000pt" height="222.000000pt" viewBox="0 0 227.000000 222.000000"
 preserveAspectRatio="xMidYMid meet">

<g transform="translate(0.000000,222.000000) scale(0.100000,-0.100000)"
fill="#000000" stroke="none">
<path d="M779 2200 c-44 -26 -377 -132 -432 -138 l-62 -7 -3 -187 c-3 -210 0
-218 67 -218 25 0 55 -11 91 -34 30 -19 74 -47 97 -61 59 -37 124 -41 271 -16
l123 20 112 -20 c116 -21 145 -20 171 7 39 39 8 108 -73 161 -62 42 -200 93
-249 93 -40 0 -82 38 -82 73 0 31 29 57 66 57 63 0 239 -102 358 -209 80 -71
108 -82 137 -55 16 14 19 26 15 49 -7 30 -119 225 -175 302 -34 47 -110 93
-254 153 -94 40 -147 48 -178 30z"/>
<path d="M2 1863 l3 -248 112 -3 113 -3 0 251 0 250 -115 0 -115 0 2 -247z"/>
<path d="M1460 1683 c0 -17 -9 -42 -20 -56 l-20 -26 180 -277 c99 -152 180
-287 180 -299 0 -40 -37 -70 -235 -195 -107 -67 -195 -125 -195 -128 0 -2 9
-19 20 -37 l20 -33 203 128 c111 71 234 149 274 174 l72 46 -236 362 c-129
200 -237 365 -239 367 -2 2 -4 -9 -4 -26z"/>
<path d="M1300 1562 c0 -9 -3 -26 -6 -37 -4 -15 29 -72 115 -202 115 -175 119
-182 101 -198 -24 -22 -34 -68 -21 -93 10 -18 0 -27 -97 -89 l-108 -70 -26 20
c-27 20 -60 25 -93 15 -17 -6 -43 29 -190 255 -93 143 -177 268 -185 278 -12
13 -25 15 -66 10 l-51 -6 234 -360 c128 -198 241 -372 251 -387 l17 -26 265
169 c146 92 269 170 274 172 6 2 -330 536 -348 553 0 1 -16 4 -33 7 -27 5 -33
3 -33 -11z"/>
<path d="M1091 1418 c-77 -40 -102 -123 -60 -198 72 -128 269 -79 269 68 0
114 -109 182 -209 130z"/>
<path d="M1980 400 l0 -280 145 0 145 0 0 280 0 280 -145 0 -145 0 0 -280z"/>
<path d="M1621 605 c-35 -14 -89 -41 -121 -60 -55 -34 -61 -35 -154 -35 -90 0
-99 -2 -121 -25 -29 -28 -31 -42 -9 -74 28 -40 90 -61 182 -61 67 0 84 -3 89
-16 3 -9 1 -24 -4 -33 -9 -13 -27 -16 -94 -14 -45 2 -98 8 -117 14 -44 15
-100 64 -116 103 -11 26 -33 41 -140 94 -151 73 -191 79 -237 33 -33 -33 -38
-75 -15 -120 26 -50 296 -218 540 -338 l120 -58 97 0 97 0 148 75 149 75 3
233 2 232 -117 0 c-100 -1 -127 -5 -182 -25z"/>
</g>
</svg>
